<svg height="512" viewBox="0 0 512 512" width="512" xmlns="http://www.w3.org/2000/svg"><g><g fill="#57a4ff"><path d="m32 256h32a0 0 0 0 1 0 0v152a16 16 0 0 1 -16 16 16 16 0 0 1 -16-16v-152a0 0 0 0 1 0 0z"/><path d="m496 280v128a16 16 0 0 1 -32 0v-128z"/><path d="m256 104a152 152 0 1 0 152 152 152 152 0 0 0 -152-152zm0 256a104 104 0 1 1 104-104 104 104 0 0 1 -104 104z"/></g><g fill="#004fac"><path d="m80 88a8 8 0 0 0 -8 8v32h-16v-32a8 8 0 0 0 -16 0v32h-16v-32a8 8 0 0 0 -16 0v76a28.031 28.031 0 0 0 28 28h4v48h-8a8 8 0 0 0 -8 8v152a24 24 0 0 0 48 0v-152a8 8 0 0 0 -8-8h-8v-48h4a28.031 28.031 0 0 0 28-28v-76a8 8 0 0 0 -8-8zm-24 320a8 8 0 0 1 -16 0v-144h16zm16-236a12.01 12.01 0 0 1 -12 12h-24a12.01 12.01 0 0 1 -12-12v-28h48z"/><path d="m496 80a72.083 72.083 0 0 0 -72 72v118a18.021 18.021 0 0 0 18 18h14v120a24 24 0 0 0 48 0v-320a8 8 0 0 0 -8-8zm-8 328a8 8 0 0 1 -16 0v-120h16zm0-136h-46a2.006 2.006 0 0 1 -2-2v-118a56.089 56.089 0 0 1 48-55.43z"/><path d="m256 96c-88.224 0-160 71.775-160 160s71.776 160 160 160 160-71.775 160-160-71.776-160-160-160zm0 304c-79.4 0-144-64.6-144-144s64.6-144 144-144 144 64.6 144 144-64.6 144-144 144z"/><path d="m256 144a112 112 0 1 0 112 112 112.127 112.127 0 0 0 -112-112zm0 208a96 96 0 1 1 96-96 96.108 96.108 0 0 1 -96 96z"/></g></g></svg>